<svg width="16" height="16" viewBox="0 0 16 16" fill="none" xmlns="http://www.w3.org/2000/svg">
<circle cx="8.34668" cy="8" r="7" fill="black" stroke="white"/>
<path d="M9.28601 4.50125C9.00116 4.33624 8.67771 4.24956 8.34851 4.25H6.47351C6.5966 4.25 6.71848 4.27425 6.83219 4.32137C6.94591 4.36849 7.04922 4.43756 7.13623 4.52462C7.22325 4.61168 7.29225 4.71504 7.33931 4.82878C7.38636 4.94252 7.41054 5.06441 7.41047 5.1875V8H8.34797C8.67722 8.00028 9.00067 7.91341 9.28547 7.74822C9.49155 7.62964 9.67332 7.47314 9.82119 7.28697C10.0833 6.95644 10.2257 6.54685 10.2251 6.125C10.2249 5.79572 10.1381 5.47229 9.97321 5.18725C9.80835 4.90221 9.57134 4.66561 9.28601 4.50125Z" fill="#E94300"/>
<path d="M9.81936 7.28696C9.67149 7.47314 9.48972 7.62964 9.28364 7.74821C8.99884 7.91341 8.67539 8.00028 8.34614 8H7.40864V5.1875C7.40871 5.06441 7.38453 4.94251 7.33748 4.82877C7.29042 4.71503 7.22142 4.61168 7.1344 4.52462C7.04739 4.43756 6.94408 4.36849 6.83036 4.32137C6.71665 4.27425 6.59477 4.25 6.47168 4.25C6.22304 4.25 5.98458 4.34877 5.80877 4.52459C5.63295 4.7004 5.53418 4.93886 5.53418 5.1875V11.75H8.81543C8.97286 11.7499 9.12989 11.7341 9.28418 11.7029C9.81348 11.5947 10.2892 11.3071 10.6308 10.8886C10.9725 10.4701 11.1591 9.94648 11.1592 9.40625C11.1594 8.9624 11.0336 8.5276 10.7964 8.15244C10.5592 7.77727 10.2204 7.47714 9.81936 7.28696Z" fill="white"/>
</svg>
