<svg width="14" height="13" viewBox="0 0 14 13" fill="none" xmlns="http://www.w3.org/2000/svg">
    <path d="M13.5 1.62508C13.2985 3.84862 11.979 6.00771 9.77713 6.73733C9.938 6.43833 10.1 6.11712 10.2549 5.77154C11.8338 4.94766 12.4416 3.46946 12.6729 2.38558H11.2169C11.2488 2.14183 11.2727 1.88616 11.2922 1.62454H13.5V1.62508ZM0.5 1.62508C0.7015 3.84862 2.021 6.00771 4.22288 6.73733C4.062 6.43833 3.90004 6.11712 3.74513 5.77154C2.16617 4.94766 1.55842 3.46946 1.32713 2.38558H2.78313C2.75171 2.14237 2.72788 1.88616 2.70838 1.62508H0.5ZM10.7917 0.541748C10.7917 5.85171 8.03242 7.61212 7.76267 9.75008H6.24329C5.97354 7.61212 3.20833 5.85171 3.20833 0.541748H10.7917ZM6.83479 7.61212C5.81321 5.84629 5.4075 3.58646 5.40154 1.62508H4.48125C4.59229 4.14275 5.55917 6.13879 6.83479 7.61212ZM7.77892 10.2917H6.2265C6.11708 10.9347 5.88525 11.7104 4.83388 11.7104V12.4584H9.16721V11.7104C8.08442 11.7104 7.88292 10.9347 7.77892 10.2917Z" fill="white" />
</svg>