<svg width="250" height="30" viewBox="0 0 250 30" fill="none" xmlns="http://www.w3.org/2000/svg">
<path d="M5.98822 23.3063H0V0.847278H4.62008C7.96227 0.847278 9.36102 1.09062 10.6985 1.94147C12.31 2.97442 13.2511 4.73737 13.2511 6.83389C13.2511 8.93041 12.5517 10.1165 10.7598 11.0576C13.6169 12.242 14.5886 13.9453 14.5886 16.6187C14.5886 20.7231 11.7621 23.3063 5.98822 23.3063ZM5.86575 4.92108H4.16404V9.51054H5.50156C8.02351 9.51054 9.08708 8.81116 9.08708 7.2013C9.08708 5.64945 8.02351 4.92108 5.86575 4.92108ZM6.1397 13.5811H4.16404V19.3244H6.22994C9.1467 19.3244 10.394 18.4735 10.394 16.5285C10.394 14.5238 9.02745 13.5811 6.1397 13.5811Z" fill="#D85111"/>
<path d="M20.2287 6.46961H16.1871V23.3062H20.2287V6.46961Z" fill="#D85111"/>
<path d="M20.2593 0.847278H16.2177V4.88884H20.2593V0.847278Z" fill="#D85111"/>
<path d="M30.9934 23.701C26.0091 23.701 21.9982 19.7803 21.9982 14.8879C21.9982 9.93425 25.8883 6.07478 30.8726 6.07478C34.7014 6.07478 38.0452 8.23254 39.3521 12.092H34.7884C33.9682 10.5418 32.6935 9.78277 30.8677 9.78277C28.0718 9.78277 26.0655 11.9099 26.0655 14.8573C26.0655 17.8047 28.1605 19.993 30.958 19.993C32.6291 19.993 33.7845 19.3243 34.7868 17.774H39.3457C37.9469 21.5433 34.9077 23.701 30.9934 23.701Z" fill="#D85111"/>
<path d="M49.4303 23.701C44.5072 23.701 40.4947 19.7497 40.4947 14.8879C40.4947 10.0535 44.5056 6.07478 49.3997 6.07478C54.4742 6.07478 58.3949 9.99548 58.3949 15.0104C58.3965 19.7513 54.3243 23.701 49.4303 23.701ZM49.4303 9.78277C46.7859 9.78277 44.5685 12.0614 44.5685 14.8283C44.5685 17.716 46.7262 19.9946 49.4609 19.9946C52.1359 19.9946 54.3227 17.716 54.3227 14.8895C54.3243 12.092 52.1359 9.78277 49.4303 9.78277Z" fill="#D85111"/>
<path d="M70.9062 23.3062V15.07C70.9062 10.5724 69.6912 9.78277 67.6833 9.78277C66.407 9.78277 65.3434 10.3291 64.7053 11.333C64.188 12.1532 64.0365 13.1266 64.0365 15.3746V23.3062H59.9998V6.46959H63.7384V8.08106C65.2274 6.6533 66.5649 6.07478 68.4793 6.07478C70.8192 6.07478 72.6434 6.92564 73.7376 8.50649C74.6497 9.81339 74.9526 11.2718 74.9526 14.2804V23.3046H70.9062V23.3062Z" fill="#D85111"/>
<path d="M85.4821 23.701C80.5591 23.701 76.5465 19.7497 76.5465 14.8879C76.5465 10.0535 80.5574 6.07478 85.4515 6.07478C90.526 6.07478 94.4467 9.99548 94.4467 15.0104C94.4467 19.7513 90.3745 23.701 85.4821 23.701ZM85.4821 9.78277C82.8377 9.78277 80.6203 12.0614 80.6203 14.8283C80.6203 17.716 82.778 19.9946 85.5127 19.9946C88.1877 19.9946 90.3745 17.716 90.3745 14.8895C90.3745 12.092 88.1861 9.78277 85.4821 9.78277Z" fill="#D85111"/>
<path d="M117.26 23.3062V14.0741C117.26 10.7013 115.984 9.78921 114.1 9.78921C111.844 9.78921 110.697 11.0043 110.697 15.0168V23.3127H106.655V14.0741C106.655 10.7609 105.5 9.78921 103.373 9.78921C101.033 9.78921 100.09 11.0349 100.09 15.0168V23.3127H96.0484V6.46959H99.7548V8.05044C100.941 6.62268 102.156 6.07478 104.132 6.07478C106.441 6.07478 107.93 6.8644 109.085 8.68858C110.453 6.8644 112.124 6.07478 114.495 6.07478C118.931 6.07478 121.302 8.5371 121.302 13.581V23.3062H117.26Z" fill="#D85111"/>
<path d="M128.656 28.9287H124.306L127.466 21.7254L121.297 6.46961H125.917L129.656 17.3793L133.728 6.46961H138.382L128.656 28.9287Z" fill="#D85111"/>
<path d="M157.761 16.4879C157.761 13.4514 156.516 11.4777 151.961 9.77733C149.836 8.98785 149.775 8.95749 149.471 8.7753C148.651 8.25911 148.226 7.56073 148.226 6.74089C148.226 5.40486 149.168 4.46356 150.534 4.46356C151.931 4.46356 152.781 5.31377 152.902 6.83198H157.214C157.002 2.88461 154.178 0.455465 150.564 0.455465C146.951 0.455465 144.036 3.27935 144.036 6.83198C144.036 9.65587 145.706 11.8117 148.712 12.9352C151.688 14.0587 151.931 14.1498 152.599 14.666C153.267 15.1822 153.631 16.0324 153.631 16.9433C153.631 18.5526 152.386 19.6761 150.595 19.6761C148.742 19.6761 147.74 18.7652 147.558 16.8826H143.216C143.581 21.1336 146.647 23.6842 150.595 23.6842C154.633 23.6842 157.761 20.5567 157.761 16.4879Z" fill="#545757"/>
<path d="M167.577 10.1417V6.46761H165.148V0.850202H161.11V6.46761H159.136V10.1417H161.11V23.2895H165.148V10.1417H167.577Z" fill="#545757"/>
<path d="M186.344 23.2895V6.46761H182.639V8.71457C181.243 6.86235 179.572 6.07287 177.143 6.07287C172.164 6.07287 168.581 9.80769 168.581 14.9393C168.581 20.0101 172.133 23.6842 177.052 23.6842C179.421 23.6842 181.03 22.9251 182.639 21.1032V23.2895H186.344ZM182.518 15C182.518 17.7935 180.696 19.9798 177.629 19.9798C174.684 19.9798 172.649 17.9757 172.649 15.0304C172.649 11.9636 174.684 9.77733 177.568 9.77733C180.453 9.77733 182.518 11.9332 182.518 15Z" fill="#545757"/>
<path d="M204.567 23.2895L197.583 14.6964L203.595 6.46761H198.768L193.393 14.3927V0.850202H189.355V23.2895H193.393V15.4251L199.132 23.2895H204.567Z" fill="#545757"/>
<path d="M211.007 23.2895V6.46761H206.968V23.2895H211.007ZM211.037 4.03846V0H206.999V4.03846H211.037Z" fill="#545757"/>
<path d="M229.202 23.2895V14.2713C229.202 11.2652 228.898 9.80769 227.988 8.50202C226.894 6.92308 225.073 6.07287 222.734 6.07287C220.822 6.07287 219.485 6.6498 217.998 8.07692V6.46761H214.263V23.2895H218.301V15.3644C218.301 13.1174 218.453 12.1457 218.969 11.3259C219.607 10.3239 220.67 9.77733 221.945 9.77733C223.949 9.77733 225.164 10.5668 225.164 15.0607V23.2895H229.202Z" fill="#545757"/>
<path d="M249.383 20.1012V6.46761H245.526V8.59312C244.281 6.89271 242.459 6.07287 240.03 6.07287C235.263 6.07287 231.741 9.77733 231.741 14.7571C231.741 19.9494 235.202 23.6842 240 23.6842C242.368 23.6842 243.947 22.9251 245.526 21.0729C245.374 24.6862 243.826 26.4474 240.82 26.4474C238.937 26.4474 237.783 25.9615 236.599 24.6559H232.014C233.381 28.0263 236.538 30 240.668 30C245.891 30 249.383 27.3279 249.383 20.1012ZM245.344 14.9393C245.344 17.9757 243.431 19.9798 240.547 19.9798C237.662 19.9798 235.81 18.0061 235.81 14.9393C235.81 11.8421 237.662 9.77733 240.486 9.77733C243.37 9.77733 245.344 11.8725 245.344 14.9393Z" fill="#545757"/>
</svg>
