<svg width="10" height="11" viewBox="0 0 10 11" fill="none" xmlns="http://www.w3.org/2000/svg">
    <path d="M2.5 10.4999H10V2.99994H8.4375V0.5H2.5C2.00279 0.5 1.52584 0.697492 1.17422 1.04922C0.822517 1.40084 0.625 1.87765 0.625 2.375V8.625C0.625 9.12232 0.822493 9.59916 1.17422 9.95078C1.52584 10.3025 2.00276 10.5 2.5 10.5V10.4999ZM8.75 4.24994V9.24994H2.5C2.33422 9.24994 2.17531 9.18411 2.05804 9.06695C1.94087 8.94967 1.87504 8.79076 1.87504 8.62498V4.14061C2.07558 4.21254 2.28693 4.24949 2.49998 4.24993L8.75 4.24994ZM2.5 1.75H7.1875V3.00003L2.5 2.99992C2.27668 2.99992 2.07037 2.88079 1.95876 2.68745C1.84715 2.4941 1.84715 2.25583 1.95876 2.0625C2.07037 1.86915 2.2767 1.75003 2.5 1.75003V1.75Z" fill="#C1C1C1" />
    <path d="M7.8125 6.74995C7.8125 7.09512 7.53262 7.37489 7.18745 7.37489C6.84227 7.37489 6.5625 7.09512 6.5625 6.74995C6.5625 6.40478 6.84227 6.12489 7.18745 6.12489C7.53262 6.12489 7.8125 6.40478 7.8125 6.74995Z" fill="#C1C1C1" />
</svg>